<svg viewBox="0 -29 512.00028 512" xmlns="http://www.w3.org/2000/svg"><path d="m511.8125 138.628906c-3.527344-74.742187-61.199219-138.046875-134.761719-138.62499975-42.671875-.33203125-79.800781 19.90624975-107.28125 58.53124975-5.464843 7.675782-10.023437 15.351563-13.769531 22.476563-3.746094-7.125-8.304688-14.800781-13.769531-22.476563-27.257813-38.3125-63.976563-58.535156-106.242188-58.535156-.34375 0-.691406 0-1.039062.00390625-73.546875.57421875-131.234375 63.86328175-134.761719 138.62499975-4.4375 94.171875 69.714844 157.234375 181.957031 252.695313 20.40625 17.355469 41.507813 35.300781 63.980469 54.960937l9.875 8.640625 9.878906-8.640625c22.46875-19.660156 43.570313-37.605468 63.976563-54.960937 112.246093-95.460938 186.398437-158.523438 181.957031-252.695313zm-201.390625 229.839844c-17.480469 14.863281-35.464844 30.160156-54.421875 46.628906-18.957031-16.46875-36.941406-31.765625-54.417969-46.628906-58.667969-49.894531-105.246093-89.46875-135.289062-128.472656h80.519531l20.46875-61.40625 57.199219 142.992187 40.792969-81.585937h180.433593c-30.070312 39.042968-76.753906 78.695312-135.285156 128.472656zm154.949219-158.472656h-218.640625l-19.207031 38.417968-62.804688-157.007812-39.53125 118.589844h-78.558594c-12.414062-23.253906-17.613281-45.820313-16.472656-69.953125 2.890625-61.265625 49.023438-109.601563 105.027344-110.042969h.8125c32.335937 0 59.6875 15.21875 81.304687 45.246094 17.183594 23.867187 24.164063 48.460937 24.242188 48.746094l14.457031 52.714843 14.464844-52.742187c.257812-.941406 26.6875-93.964844 105.5625-93.964844.261718 0 .527344 0 .789062.003906 56.003906.4375 102.140625 48.773438 105.027344 110.039063 1.140625 24.132812-4.058594 46.699219-16.472656 69.953125zm0 0"/></svg>
